<svg width="123" height="123" viewBox="0 0 123 123" fill="none" xmlns="http://www.w3.org/2000/svg">
<path d="M0 21.5474C0 9.64712 9.64712 0 21.5474 0H101.453C113.353 0 123 9.64712 123 21.5474V101.453C123 113.353 113.353 123 101.453 123H21.5474C9.64712 123 0 113.353 0 101.453V21.5474Z" fill="white"/>
<path d="M42.0066 85.9388C42.0066 88.9663 41.0605 91.2748 39.1683 92.8642C37.3518 94.4537 35.1947 95.2484 32.6969 95.2484C30.1235 95.2484 27.8907 94.4537 25.9985 92.8642C24.182 91.2748 23.2737 88.9663 23.2737 85.9388V36.8927C23.2737 33.8652 24.182 31.5567 25.9985 29.9672C27.8907 28.3778 30.1235 27.5831 32.6969 27.5831C35.1947 27.5831 37.3518 28.3778 39.1683 29.9672C41.0605 31.5567 42.0066 33.8652 42.0066 36.8927V85.9388Z" fill="white"/>
<path d="M65.7801 85.9388C65.7801 88.9663 64.834 91.2748 62.9418 92.8642C61.1253 94.4537 58.9303 95.2484 56.3569 95.2484C53.8592 95.2484 51.6643 94.4537 49.772 92.8642C47.9555 91.2748 47.0473 88.9663 47.0473 85.9388V36.8927C47.0473 33.8652 47.9555 31.5567 49.772 29.9672C51.6643 28.3778 53.8592 27.5831 56.3569 27.5831H56.8111C60.1413 27.5831 62.5255 28.9833 63.9636 31.7838L80.9935 57.5556V36.8927C80.9935 33.8652 81.9017 31.5567 83.7183 29.9672C85.6105 28.3778 87.8054 27.5831 90.3031 27.5831C92.8765 27.5831 95.0715 28.3778 96.888 29.9672C98.7802 31.5567 99.7263 33.8652 99.7263 36.8927V85.9388C99.7263 88.9663 98.7802 91.2748 96.888 92.8642C95.0715 94.4537 92.8765 95.2484 90.3031 95.2484C89.0164 95.2484 87.919 95.0971 87.0107 94.7943C86.1024 94.4915 85.3077 94.1131 84.6265 93.659C84.021 93.2048 83.529 92.7507 83.1506 92.2966C82.7722 91.8425 82.4694 91.464 82.2423 91.1613L65.7801 66.6382V85.9388Z" fill="white"/>
<path fill-rule="evenodd" clip-rule="evenodd" d="M25.9985 29.9674C27.8907 28.3779 30.1235 27.5832 32.6969 27.5832C35.1946 27.5832 37.3518 28.3779 39.1683 29.9674C40.3612 30.9694 41.1781 32.2573 41.619 33.8309C41.8774 34.7534 42.0066 35.774 42.0066 36.8928V85.9389C42.0066 87.0577 41.8774 88.0784 41.619 89.0008C41.1781 90.5744 40.3612 91.8623 39.1683 92.8643C37.3518 94.4538 35.1946 95.2485 32.6969 95.2485C30.1235 95.2485 27.8907 94.4538 25.9985 92.8643C24.182 91.2749 23.2737 88.9664 23.2737 85.9389V36.8928C23.2737 33.8653 24.182 31.5568 25.9985 29.9674ZM42.8644 97.1731C39.9824 99.6774 36.4988 100.925 32.6969 100.925C28.848 100.925 25.3073 99.6973 22.3474 97.211L22.3035 97.1741L22.2604 97.1364C18.9103 94.205 17.5971 90.1545 17.5971 85.9389V36.8928C17.5971 32.6772 18.9103 28.6267 22.2604 25.6953L22.3035 25.6576L22.3474 25.6207C25.3073 23.1344 28.848 21.9066 32.6969 21.9066C36.4988 21.9066 39.9824 23.1543 42.8643 25.6586C43.4678 26.1699 44.0081 26.7169 44.4888 27.2944C44.9466 26.7317 45.4604 26.1971 46.0339 25.6953L46.077 25.6576L46.1209 25.6207C49.0477 23.1622 52.5393 21.9066 56.3569 21.9066H56.811C59.28 21.9066 61.7454 22.431 63.9717 23.7385C66.1123 24.9957 67.7178 26.7931 68.8517 28.8844L75.3168 38.6684V36.8928C75.3168 32.6772 76.63 28.6267 79.9802 25.6953L80.0232 25.6576L80.0671 25.6207C82.9939 23.1622 86.4855 21.9066 90.3031 21.9066C94.1343 21.9066 97.6687 23.1256 100.584 25.6586C104.013 28.5642 105.403 32.6201 105.403 36.8928V85.9389C105.403 90.2116 104.013 94.2675 100.584 97.1731C97.6688 99.7061 94.1343 100.925 90.3031 100.925C88.6022 100.925 86.8631 100.729 85.2156 100.18C83.9074 99.7437 82.6425 99.1589 81.4777 98.3823L81.3466 98.2949L81.2205 98.2004C80.3555 97.5516 79.5159 96.8022 78.7897 95.9308C78.3794 95.4384 78.009 94.978 77.701 94.5673L77.6119 94.4486L71.4567 85.2794V85.9389C71.4567 90.2116 70.0672 94.2675 66.6379 97.1731C63.7226 99.7061 60.1881 100.925 56.3569 100.925C52.5393 100.925 49.0477 99.6695 46.1209 97.211L46.077 97.1741L46.0339 97.1364C45.4604 96.6346 44.9466 96.1 44.4888 95.5373C44.0082 96.1148 43.4679 96.6617 42.8644 97.1731ZM47.4246 89.02C47.849 90.5849 48.6315 91.8664 49.772 92.8643C51.6642 94.4538 53.8592 95.2485 56.3569 95.2485C58.9303 95.2485 61.1253 94.4538 62.9418 92.8643C64.834 91.2749 65.7801 88.9664 65.7801 85.9389V66.6383L82.2423 91.1614C82.4694 91.4641 82.7721 91.8426 83.1506 92.2967C83.529 92.7508 84.021 93.2049 84.6265 93.6591C85.3077 94.1132 86.1024 94.4916 87.0107 94.7944C87.9189 95.0972 89.0164 95.2485 90.3031 95.2485C92.8765 95.2485 95.0715 94.4538 96.888 92.8643C98.7802 91.2749 99.7263 88.9664 99.7263 85.9389V36.8928C99.7263 33.8653 98.7802 31.5568 96.888 29.9674C95.0715 28.3779 92.8765 27.5832 90.3031 27.5832C87.8054 27.5832 85.6105 28.3779 83.7182 29.9674C81.9017 31.5568 80.9935 33.8653 80.9935 36.8928V57.5558L63.9636 31.7839C62.5255 28.9834 60.1413 27.5832 56.811 27.5832H56.3569C53.8592 27.5832 51.6642 28.3779 49.772 29.9674C48.6315 30.9653 47.849 32.2468 47.4246 33.8117C47.173 34.7392 47.0473 35.7662 47.0473 36.8928V85.9389C47.0473 87.0655 47.173 88.0925 47.4246 89.02Z" fill="url(#paint0_linear_3665_42)"/>
<defs>
<linearGradient id="paint0_linear_3665_42" x1="61.5" y1="21.9066" x2="97.0942" y2="100.925" gradientUnits="userSpaceOnUse">
<stop stop-color="#893BDC"/>
<stop offset="0.494899" stop-color="#5D42CE"/>
<stop offset="1" stop-color="#31FAF4"/>
</linearGradient>
</defs>
</svg>
